<svg width="24" height="24" viewBox="0 0 20 20" fill="none" xmlns="http://www.w3.org/2000/svg">
<path d="M7.0835 16.0859C7.0835 15.5337 7.53121 15.0859 8.08349 15.0859C8.63577 15.0859 9.08348 15.5337 9.08348 16.0859C9.08348 16.6382 8.63577 17.0859 8.08349 17.0859C7.53121 17.0859 7.0835 16.6382 7.0835 16.0859Z" fill="#1174DC"/>
<path d="M13.0825 16.0859C13.0825 15.5337 13.5302 15.0859 14.0825 15.0859C14.6348 15.0859 15.0825 15.5337 15.0825 16.0859C15.0825 16.6382 14.6348 17.0859 14.0825 17.0859C13.5302 17.0859 13.0825 16.6382 13.0825 16.0859Z" fill="#1174DC"/>
<path d="M3.3335 5.83594H4.41452C4.66624 5.83594 4.8912 5.99306 4.97785 6.22939L7.00642 11.7621C7.35303 12.7075 8.25286 13.3359 9.25973 13.3359H13.1037C14.1367 13.3359 15.0539 12.6749 15.3805 11.6949L16.5703 8.12567C16.6998 7.73715 16.4106 7.33594 16.001 7.33594H8.58345" stroke="#1174DC" stroke-linecap="round" stroke-linejoin="round"/>
</svg>
