<svg width="24" height="24" viewBox="0 0 21 20" fill="none" xmlns="http://www.w3.org/2000/svg">
<path d="M10.7344 11.25C7.97295 11.25 5.73438 9.01142 5.73438 6.25C5.73438 3.48858 7.97295 1.25 10.7344 1.25C13.4958 1.25 15.7344 3.48858 15.7344 6.25C15.7344 9.01142 13.4958 11.25 10.7344 11.25ZM10.7344 10C12.8054 10 14.4844 8.32107 14.4844 6.25C14.4844 4.17893 12.8054 2.5 10.7344 2.5C8.66331 2.5 6.98438 4.17893 6.98438 6.25C6.98438 8.32107 8.66331 10 10.7344 10ZM2.60938 18.75V17.0312C2.60938 14.8711 4.35826 13.125 6.51563 13.125H14.9531C17.1105 13.125 18.8594 14.8711 18.8594 17.0312V18.75C18.169 18.75 17.6094 18.1913 17.6094 17.5V17.0312C17.6094 15.5603 16.4201 14.373 14.9531 14.375H6.51563C5.04862 14.373 3.85938 15.5603 3.85938 17.0312V17.5C3.85938 18.1822 3.29973 18.7409 2.60938 18.75Z" fill="#555555"/>
</svg>
